<?plantuml 1.2026.2?><svg xmlns="http://www.w3.org/2000/svg" xmlns:xlink="http://www.w3.org/1999/xlink" contentStyleType="text/css" data-diagram-type="CLASS" height="299px" preserveAspectRatio="none" style="width:877px;height:299px;background:#FFFFFF;" version="1.1" viewBox="0 0 877 299" width="877px" zoomAndPan="magnify"><defs/><g><!--class Platform--><g class="entity" data-qualified-name="Platform" data-source-line="19" id="ent0002"><rect fill="#F1F1F1" height="64.2969" rx="2.5" ry="2.5" style="stroke:#181818;stroke-width:0.5;" width="110.6221" x="23" y="12"/><ellipse cx="46.7003" cy="28" fill="#ADD1B2" rx="11" ry="11" style="stroke:#181818;stroke-width:1;"/><path d="M49.669,33.6406 Q49.0909,33.9375 48.4503,34.0781 Q47.8097,34.2344 47.1065,34.2344 Q44.6065,34.2344 43.2784,32.5938 Q41.9659,30.9375 41.9659,27.8125 Q41.9659,24.6875 43.2784,23.0313 Q44.6065,21.375 47.1065,21.375 Q47.8097,21.375 48.4503,21.5313 Q49.1065,21.6875 49.669,21.9844 L49.669,24.7031 Q49.044,24.125 48.4503,23.8594 Q47.8565,23.5781 47.2315,23.5781 Q45.8878,23.5781 45.2003,24.6563 Q44.5128,25.7188 44.5128,27.8125 Q44.5128,29.9063 45.2003,30.9844 Q45.8878,32.0469 47.2315,32.0469 Q47.8565,32.0469 48.4503,31.7813 Q49.044,31.5 49.669,30.9219 L49.669,33.6406 Z " fill="#000000"/><text fill="#000000" font-family="sans-serif" font-size="14" lengthAdjust="spacing" textLength="59.2881" x="62.6337" y="32.8467">Platform</text><line style="stroke:#181818;stroke-width:0.5;" x1="24" x2="132.6221" y1="44" y2="44"/><text fill="#000000" font-family="sans-serif" font-size="14" lengthAdjust="spacing" textLength="98.6221" x="29" y="60.9951">all JRE classes</text><line style="stroke:#181818;stroke-width:0.5;" x1="24" x2="132.6221" y1="68.2969" y2="68.2969"/></g><!--class Bootstrap--><g class="entity" data-qualified-name="Bootstrap" data-source-line="19" id="ent0003"><rect fill="#F1F1F1" height="64.2969" rx="2.5" ry="2.5" style="stroke:#181818;stroke-width:0.5;" width="144.5215" x="6" y="112"/><ellipse cx="40.9314" cy="128" fill="#ADD1B2" rx="11" ry="11" style="stroke:#181818;stroke-width:1;"/><path d="M43.9001,133.6406 Q43.322,133.9375 42.6814,134.0781 Q42.0408,134.2344 41.3376,134.2344 Q38.8376,134.2344 37.5095,132.5938 Q36.197,130.9375 36.197,127.8125 Q36.197,124.6875 37.5095,123.0313 Q38.8376,121.375 41.3376,121.375 Q42.0408,121.375 42.6814,121.5313 Q43.3376,121.6875 43.9001,121.9844 L43.9001,124.7031 Q43.2751,124.125 42.6814,123.8594 Q42.0876,123.5781 41.4626,123.5781 Q40.1189,123.5781 39.4314,124.6563 Q38.7439,125.7188 38.7439,127.8125 Q38.7439,129.9063 39.4314,130.9844 Q40.1189,132.0469 41.4626,132.0469 Q42.0876,132.0469 42.6814,131.7813 Q43.2751,131.5 43.9001,130.9219 L43.9001,133.6406 Z " fill="#000000"/><text fill="#000000" font-family="sans-serif" font-size="14" lengthAdjust="spacing" textLength="68.2295" x="59.3606" y="132.8467">Bootstrap</text><line style="stroke:#181818;stroke-width:0.5;" x1="7" x2="149.5215" y1="144" y2="144"/><text fill="#000000" font-family="sans-serif" font-size="14" lengthAdjust="spacing" textLength="132.5215" x="12" y="160.9951">Plexus Classworlds</text><line style="stroke:#181818;stroke-width:0.5;" x1="7" x2="149.5215" y1="168.2969" y2="168.2969"/></g><!--class BuildExtension--><g class="entity" data-qualified-name="BuildExtension" data-source-line="20" id="ent0005"><rect fill="#F1F1F1" height="80.5938" rx="2.5" ry="2.5" style="stroke:#181818;stroke-width:0.5;" width="135.8721" x="160.5" y="212"/><ellipse cx="175.5" cy="228" fill="#ADD1B2" rx="11" ry="11" style="stroke:#181818;stroke-width:1;"/><path d="M178.4688,233.6406 Q177.8906,233.9375 177.25,234.0781 Q176.6094,234.2344 175.9063,234.2344 Q173.4063,234.2344 172.0781,232.5938 Q170.7656,230.9375 170.7656,227.8125 Q170.7656,224.6875 172.0781,223.0313 Q173.4063,221.375 175.9063,221.375 Q176.6094,221.375 177.25,221.5313 Q177.9063,221.6875 178.4688,221.9844 L178.4688,224.7031 Q177.8438,224.125 177.25,223.8594 Q176.6563,223.5781 176.0313,223.5781 Q174.6875,223.5781 174,224.6563 Q173.3125,225.7188 173.3125,227.8125 Q173.3125,229.9063 174,230.9844 Q174.6875,232.0469 176.0313,232.0469 Q176.6563,232.0469 177.25,231.7813 Q177.8438,231.5 178.4688,230.9219 L178.4688,233.6406 Z " fill="#000000"/><text fill="#000000" font-family="sans-serif" font-size="14" lengthAdjust="spacing" textLength="103.8721" x="189.5" y="232.8467">BuildExtension</text><line style="stroke:#181818;stroke-width:0.5;" x1="161.5" x2="295.3721" y1="244" y2="244"/><text fill="#000000" font-family="sans-serif" font-size="14" lengthAdjust="spacing" textLength="97.7402" x="166.5" y="260.9951">dependencies</text><text fill="#000000" font-family="sans-serif" font-size="14" lengthAdjust="spacing" textLength="50.6611" x="166.5" y="277.292">classes</text><line style="stroke:#181818;stroke-width:0.5;" x1="161.5" x2="295.3721" y1="284.5938" y2="284.5938"/></g><!--class API--><g class="entity" data-qualified-name="API" data-source-line="21" id="ent0007"><rect fill="#F1F1F1" height="48" rx="2.5" ry="2.5" style="stroke:#181818;stroke-width:0.5;" width="54.1484" x="352.5" y="120"/><ellipse cx="367.5" cy="136" fill="#ADD1B2" rx="11" ry="11" style="stroke:#181818;stroke-width:1;"/><path d="M370.4688,141.6406 Q369.8906,141.9375 369.25,142.0781 Q368.6094,142.2344 367.9063,142.2344 Q365.4063,142.2344 364.0781,140.5938 Q362.7656,138.9375 362.7656,135.8125 Q362.7656,132.6875 364.0781,131.0313 Q365.4063,129.375 367.9063,129.375 Q368.6094,129.375 369.25,129.5313 Q369.9063,129.6875 370.4688,129.9844 L370.4688,132.7031 Q369.8438,132.125 369.25,131.8594 Q368.6563,131.5781 368.0313,131.5781 Q366.6875,131.5781 366,132.6563 Q365.3125,133.7188 365.3125,135.8125 Q365.3125,137.9063 366,138.9844 Q366.6875,140.0469 368.0313,140.0469 Q368.6563,140.0469 369.25,139.7813 Q369.8438,139.5 370.4688,138.9219 L370.4688,141.6406 Z " fill="#000000"/><text fill="#000000" font-family="sans-serif" font-size="14" lengthAdjust="spacing" textLength="22.1484" x="381.5" y="140.8467">API</text><line style="stroke:#181818;stroke-width:0.5;" x1="353.5" x2="405.6484" y1="152" y2="152"/><line style="stroke:#181818;stroke-width:0.5;" x1="353.5" x2="405.6484" y1="160" y2="160"/></g><!--class CoreExtension--><g class="entity" data-qualified-name="CoreExtension" data-source-line="22" id="ent0009"><rect fill="#F1F1F1" height="64.2969" rx="2.5" ry="2.5" style="stroke:#181818;stroke-width:0.5;" width="418.793" x="170" y="12"/><ellipse cx="324.4272" cy="28" fill="#ADD1B2" rx="11" ry="11" style="stroke:#181818;stroke-width:1;"/><path d="M327.396,33.6406 Q326.8179,33.9375 326.1772,34.0781 Q325.5366,34.2344 324.8335,34.2344 Q322.3335,34.2344 321.0054,32.5938 Q319.6929,30.9375 319.6929,27.8125 Q319.6929,24.6875 321.0054,23.0313 Q322.3335,21.375 324.8335,21.375 Q325.5366,21.375 326.1772,21.5313 Q326.8335,21.6875 327.396,21.9844 L327.396,24.7031 Q326.771,24.125 326.1772,23.8594 Q325.5835,23.5781 324.9585,23.5781 Q323.6147,23.5781 322.9272,24.6563 Q322.2397,25.7188 322.2397,27.8125 Q322.2397,29.9063 322.9272,30.9844 Q323.6147,32.0469 324.9585,32.0469 Q325.5835,32.0469 326.1772,31.7813 Q326.771,31.5 327.396,30.9219 L327.396,33.6406 Z " fill="#000000"/><text fill="#000000" font-family="sans-serif" font-size="14" lengthAdjust="spacing" textLength="101.4385" x="344.9272" y="32.8467">CoreExtension</text><line style="stroke:#181818;stroke-width:0.5;" x1="171" x2="587.793" y1="44" y2="44"/><text fill="#000000" font-family="sans-serif" font-size="14" lengthAdjust="spacing" textLength="406.793" x="176" y="60.9951">all packages defined in "/META-INF/maven/extension.xml"</text><line style="stroke:#181818;stroke-width:0.5;" x1="171" x2="587.793" y1="68.2969" y2="68.2969"/></g><g class="entity" data-qualified-name="GMN11" data-source-line="41" id="ent0012"><path d="M424.5,131.5 L424.5,140 L406.5156,144 L424.5,148 L424.5,156.6328 A0,0 0 0 0 424.5,156.6328 L698.0479,156.6328 A0,0 0 0 0 698.0479,156.6328 L698.0479,141.5 L688.0479,131.5 L424.5,131.5 A0,0 0 0 0 424.5,131.5" fill="#FEFFDD" style="stroke:#181818;stroke-width:0.5;"/><path d="M688.0479,131.5 L688.0479,141.5 L698.0479,141.5 L688.0479,131.5" fill="#FEFFDD" style="stroke:#181818;stroke-width:0.5;"/><text fill="#000000" font-family="sans-serif" font-size="13" lengthAdjust="spacing" textLength="252.5479" x="430.5" y="148.5669">Just composition of all Core Extensions</text></g><g class="entity" data-qualified-name="GMN14" data-source-line="42" id="ent0015"><path d="M169,131.5 L169,140 L151.1465,144 L169,148 L169,156.6328 A0,0 0 0 0 169,156.6328 L333.9966,156.6328 A0,0 0 0 0 333.9966,156.6328 L333.9966,141.5 L323.9966,131.5 L169,131.5 A0,0 0 0 0 169,131.5" fill="#FEFFDD" style="stroke:#181818;stroke-width:0.5;"/><path d="M323.9966,131.5 L323.9966,141.5 L333.9966,141.5 L323.9966,131.5" fill="#FEFFDD" style="stroke:#181818;stroke-width:0.5;"/><text fill="#000000" font-family="sans-serif" font-size="13" lengthAdjust="spacing" textLength="143.9966" x="175" y="148.5669">${maven.home}/boot</text></g><g class="entity" data-qualified-name="GMN17" data-source-line="43" id="ent0018"><path d="M314.5,240 L314.5,248.5 L296.75,252.5 L314.5,256.5 L314.5,265.1328 A0,0 0 0 0 314.5,265.1328 L870.3345,265.1328 A0,0 0 0 0 870.3345,265.1328 L870.3345,250 L860.3345,240 L314.5,240 A0,0 0 0 0 314.5,240" fill="#FEFFDD" style="stroke:#181818;stroke-width:0.5;"/><path d="M860.3345,240 L860.3345,250 L870.3345,250 L860.3345,240" fill="#FEFFDD" style="stroke:#181818;stroke-width:0.5;"/><text fill="#000000" font-family="sans-serif" font-size="13" lengthAdjust="spacing" textLength="534.8345" x="320.5" y="257.0669">Per GAV of plugin loaded with &lt;extensions&gt;true&lt;/extensions&gt; or build extension</text></g><g class="link" data-entity-1="ent0002" data-entity-2="ent0003" data-link-type="aggregation" id="lnk4"><polygon fill="none" points="78.5,76.0078,74.5,82.0078,78.5,88.0078,82.5,82.0078,78.5,76.0078" style="stroke:#181818;stroke-width:1;"/><path d="M78.5,88.0078 C78.5,99.4473 78.5,100.4062 78.5,111.8575" fill="none" style="stroke:#181818;stroke-width:1;"/></g><g class="link" data-entity-1="ent0003" data-entity-2="ent0005" data-link-type="aggregation" id="lnk6"><polygon fill="none" points="122.2894,176.0905,124.8661,182.8256,132.074,183.0376,129.4974,176.3025,122.2894,176.0905" style="stroke:#181818;stroke-width:1;"/><path d="M132.074,183.0376 C147.8123,194.2117 155.9976,200.0233 172.6239,211.828" fill="none" style="stroke:#181818;stroke-width:1;"/><text fill="#000000" font-family="sans-serif" font-size="13" lengthAdjust="spacing" textLength="36.5625" x="135.6239" y="207.8948">many</text><text fill="#000000" font-family="sans-serif" font-size="13" lengthAdjust="spacing" textLength="8.271" x="113.2894" y="189.1574">1</text></g><g class="link" data-entity-1="ent0007" data-entity-2="ent0005" data-link-type="aggregation" id="lnk8"><polygon fill="none" points="352.706,168.0457,345.525,168.7038,343.3705,175.5855,350.5515,174.9274,352.706,168.0457" style="stroke:#181818;stroke-width:1;"/><path d="M343.3705,175.5855 C339.9801,178.3238 345.8579,173.4937 342.5,176 C326.1394,188.2111 307.9057,200.7383 290.9038,211.9912" fill="none" style="stroke:#181818;stroke-width:1;"/><text fill="#000000" font-family="sans-serif" font-size="13" lengthAdjust="spacing" textLength="36.5625" x="253.9038" y="208.0581">many</text><text fill="#000000" font-family="sans-serif" font-size="13" lengthAdjust="spacing" textLength="8.271" x="343.706" y="181.1126">1</text></g><g class="link" data-entity-1="ent0009" data-entity-2="ent0007" data-link-type="aggregation" id="lnk10"><polygon fill="none" points="379.5,76.0078,375.5,82.0078,379.5,88.0078,383.5,82.0078,379.5,76.0078" style="stroke:#181818;stroke-width:1;"/><path d="M379.5,88.0078 C379.5,102.2511 379.5,106.8498 379.5,119.9614" fill="none" style="stroke:#181818;stroke-width:1;"/><text fill="#000000" font-family="sans-serif" font-size="13" lengthAdjust="spacing" textLength="8.271" x="370.5" y="116.0283">1</text><text fill="#000000" font-family="sans-serif" font-size="13" lengthAdjust="spacing" textLength="36.5625" x="342.5" y="89.0747">many</text></g></g></svg>