<?plantuml 1.2026.2?><svg xmlns="http://www.w3.org/2000/svg" xmlns:xlink="http://www.w3.org/1999/xlink" contentStyleType="text/css" data-diagram-type="CLASS" height="416px" preserveAspectRatio="none" style="width:1339px;height:416px;background:#FFFFFF;" version="1.1" viewBox="0 0 1339 416" width="1339px" zoomAndPan="magnify"><defs/><g><!--class Platform--><g class="entity" data-qualified-name="Platform" data-source-line="19" id="ent0002"><rect fill="#F1F1F1" height="64.2969" rx="2.5" ry="2.5" style="stroke:#181818;stroke-width:0.5;" width="110.6221" x="23" y="120.5"/><ellipse cx="46.7003" cy="136.5" fill="#ADD1B2" rx="11" ry="11" style="stroke:#181818;stroke-width:1;"/><path d="M49.669,142.1406 Q49.0909,142.4375 48.4503,142.5781 Q47.8097,142.7344 47.1065,142.7344 Q44.6065,142.7344 43.2784,141.0938 Q41.9659,139.4375 41.9659,136.3125 Q41.9659,133.1875 43.2784,131.5313 Q44.6065,129.875 47.1065,129.875 Q47.8097,129.875 48.4503,130.0313 Q49.1065,130.1875 49.669,130.4844 L49.669,133.2031 Q49.044,132.625 48.4503,132.3594 Q47.8565,132.0781 47.2315,132.0781 Q45.8878,132.0781 45.2003,133.1563 Q44.5128,134.2188 44.5128,136.3125 Q44.5128,138.4063 45.2003,139.4844 Q45.8878,140.5469 47.2315,140.5469 Q47.8565,140.5469 48.4503,140.2813 Q49.044,140 49.669,139.4219 L49.669,142.1406 Z " fill="#000000"/><text fill="#000000" font-family="sans-serif" font-size="14" lengthAdjust="spacing" textLength="59.2881" x="62.6337" y="141.3467">Platform</text><line style="stroke:#181818;stroke-width:0.5;" x1="24" x2="132.6221" y1="152.5" y2="152.5"/><text fill="#000000" font-family="sans-serif" font-size="14" lengthAdjust="spacing" textLength="98.6221" x="29" y="169.4951">all JRE classes</text><line style="stroke:#181818;stroke-width:0.5;" x1="24" x2="132.6221" y1="176.7969" y2="176.7969"/></g><!--class Bootstrap--><g class="entity" data-qualified-name="Bootstrap" data-source-line="19" id="ent0003"><rect fill="#F1F1F1" height="64.2969" rx="2.5" ry="2.5" style="stroke:#181818;stroke-width:0.5;" width="144.5215" x="6" y="229"/><ellipse cx="40.9314" cy="245" fill="#ADD1B2" rx="11" ry="11" style="stroke:#181818;stroke-width:1;"/><path d="M43.9001,250.6406 Q43.322,250.9375 42.6814,251.0781 Q42.0408,251.2344 41.3376,251.2344 Q38.8376,251.2344 37.5095,249.5938 Q36.197,247.9375 36.197,244.8125 Q36.197,241.6875 37.5095,240.0313 Q38.8376,238.375 41.3376,238.375 Q42.0408,238.375 42.6814,238.5313 Q43.3376,238.6875 43.9001,238.9844 L43.9001,241.7031 Q43.2751,241.125 42.6814,240.8594 Q42.0876,240.5781 41.4626,240.5781 Q40.1189,240.5781 39.4314,241.6563 Q38.7439,242.7188 38.7439,244.8125 Q38.7439,246.9063 39.4314,247.9844 Q40.1189,249.0469 41.4626,249.0469 Q42.0876,249.0469 42.6814,248.7813 Q43.2751,248.5 43.9001,247.9219 L43.9001,250.6406 Z " fill="#000000"/><text fill="#000000" font-family="sans-serif" font-size="14" lengthAdjust="spacing" textLength="68.2295" x="59.3606" y="249.8467">Bootstrap</text><line style="stroke:#181818;stroke-width:0.5;" x1="7" x2="149.5215" y1="261" y2="261"/><text fill="#000000" font-family="sans-serif" font-size="14" lengthAdjust="spacing" textLength="132.5215" x="12" y="277.9951">Plexus Classworlds</text><line style="stroke:#181818;stroke-width:0.5;" x1="7" x2="149.5215" y1="285.2969" y2="285.2969"/></g><!--class Plugin--><g class="entity" data-qualified-name="Plugin" data-source-line="20" id="ent0005"><rect fill="#F1F1F1" height="80.5938" rx="2.5" ry="2.5" style="stroke:#181818;stroke-width:0.5;" width="109.7402" x="180.5" y="329"/><ellipse cx="211.1986" cy="345" fill="#ADD1B2" rx="11" ry="11" style="stroke:#181818;stroke-width:1;"/><path d="M214.1673,350.6406 Q213.5892,350.9375 212.9486,351.0781 Q212.308,351.2344 211.6048,351.2344 Q209.1048,351.2344 207.7767,349.5938 Q206.4642,347.9375 206.4642,344.8125 Q206.4642,341.6875 207.7767,340.0313 Q209.1048,338.375 211.6048,338.375 Q212.308,338.375 212.9486,338.5313 Q213.6048,338.6875 214.1673,338.9844 L214.1673,341.7031 Q213.5423,341.125 212.9486,340.8594 Q212.3548,340.5781 211.7298,340.5781 Q210.3861,340.5781 209.6986,341.6563 Q209.0111,342.7188 209.0111,344.8125 Q209.0111,346.9063 209.6986,347.9844 Q210.3861,349.0469 211.7298,349.0469 Q212.3548,349.0469 212.9486,348.7813 Q213.5423,348.5 214.1673,347.9219 L214.1673,350.6406 Z " fill="#000000"/><text fill="#000000" font-family="sans-serif" font-size="14" lengthAdjust="spacing" textLength="42.8545" x="228.6872" y="349.8467">Plugin</text><line style="stroke:#181818;stroke-width:0.5;" x1="181.5" x2="289.2402" y1="361" y2="361"/><text fill="#000000" font-family="sans-serif" font-size="14" lengthAdjust="spacing" textLength="97.7402" x="186.5" y="377.9951">dependencies</text><text fill="#000000" font-family="sans-serif" font-size="14" lengthAdjust="spacing" textLength="50.6611" x="186.5" y="394.292">classes</text><line style="stroke:#181818;stroke-width:0.5;" x1="181.5" x2="289.2402" y1="401.5938" y2="401.5938"/></g><!--class API--><g class="entity" data-qualified-name="API" data-source-line="21" id="ent0007"><rect fill="#F1F1F1" height="48" rx="2.5" ry="2.5" style="stroke:#181818;stroke-width:0.5;" width="54.1484" x="258.5" y="128.5"/><ellipse cx="273.5" cy="144.5" fill="#ADD1B2" rx="11" ry="11" style="stroke:#181818;stroke-width:1;"/><path d="M276.4688,150.1406 Q275.8906,150.4375 275.25,150.5781 Q274.6094,150.7344 273.9063,150.7344 Q271.4063,150.7344 270.0781,149.0938 Q268.7656,147.4375 268.7656,144.3125 Q268.7656,141.1875 270.0781,139.5313 Q271.4063,137.875 273.9063,137.875 Q274.6094,137.875 275.25,138.0313 Q275.9063,138.1875 276.4688,138.4844 L276.4688,141.2031 Q275.8438,140.625 275.25,140.3594 Q274.6563,140.0781 274.0313,140.0781 Q272.6875,140.0781 272,141.1563 Q271.3125,142.2188 271.3125,144.3125 Q271.3125,146.4063 272,147.4844 Q272.6875,148.5469 274.0313,148.5469 Q274.6563,148.5469 275.25,148.2813 Q275.8438,148 276.4688,147.4219 L276.4688,150.1406 Z " fill="#000000"/><text fill="#000000" font-family="sans-serif" font-size="14" lengthAdjust="spacing" textLength="22.1484" x="287.5" y="149.3467">API</text><line style="stroke:#181818;stroke-width:0.5;" x1="259.5" x2="311.6484" y1="160.5" y2="160.5"/><line style="stroke:#181818;stroke-width:0.5;" x1="259.5" x2="311.6484" y1="168.5" y2="168.5"/></g><!--class Project--><g class="entity" data-qualified-name="Project" data-source-line="21" id="ent0008"><rect fill="#F1F1F1" height="48" rx="2.5" ry="2.5" style="stroke:#181818;stroke-width:0.5;" width="80.4531" x="352.5" y="237"/><ellipse cx="367.5" cy="253" fill="#ADD1B2" rx="11" ry="11" style="stroke:#181818;stroke-width:1;"/><path d="M370.4688,258.6406 Q369.8906,258.9375 369.25,259.0781 Q368.6094,259.2344 367.9063,259.2344 Q365.4063,259.2344 364.0781,257.5938 Q362.7656,255.9375 362.7656,252.8125 Q362.7656,249.6875 364.0781,248.0313 Q365.4063,246.375 367.9063,246.375 Q368.6094,246.375 369.25,246.5313 Q369.9063,246.6875 370.4688,246.9844 L370.4688,249.7031 Q369.8438,249.125 369.25,248.8594 Q368.6563,248.5781 368.0313,248.5781 Q366.6875,248.5781 366,249.6563 Q365.3125,250.7188 365.3125,252.8125 Q365.3125,254.9063 366,255.9844 Q366.6875,257.0469 368.0313,257.0469 Q368.6563,257.0469 369.25,256.7813 Q369.8438,256.5 370.4688,255.9219 L370.4688,258.6406 Z " fill="#000000"/><text fill="#000000" font-family="sans-serif" font-size="14" lengthAdjust="spacing" textLength="48.4531" x="381.5" y="257.8467">Project</text><line style="stroke:#181818;stroke-width:0.5;" x1="353.5" x2="431.9531" y1="269" y2="269"/><line style="stroke:#181818;stroke-width:0.5;" x1="353.5" x2="431.9531" y1="277" y2="277"/></g><!--class CoreExtension--><g class="entity" data-qualified-name="CoreExtension" data-source-line="22" id="ent0010"><rect fill="#F1F1F1" height="64.2969" rx="2.5" ry="2.5" style="stroke:#181818;stroke-width:0.5;" width="418.793" x="76" y="12"/><ellipse cx="230.4272" cy="28" fill="#ADD1B2" rx="11" ry="11" style="stroke:#181818;stroke-width:1;"/><path d="M233.396,33.6406 Q232.8179,33.9375 232.1772,34.0781 Q231.5366,34.2344 230.8335,34.2344 Q228.3335,34.2344 227.0054,32.5938 Q225.6929,30.9375 225.6929,27.8125 Q225.6929,24.6875 227.0054,23.0313 Q228.3335,21.375 230.8335,21.375 Q231.5366,21.375 232.1772,21.5313 Q232.8335,21.6875 233.396,21.9844 L233.396,24.7031 Q232.771,24.125 232.1772,23.8594 Q231.5835,23.5781 230.9585,23.5781 Q229.6147,23.5781 228.9272,24.6563 Q228.2397,25.7188 228.2397,27.8125 Q228.2397,29.9063 228.9272,30.9844 Q229.6147,32.0469 230.9585,32.0469 Q231.5835,32.0469 232.1772,31.7813 Q232.771,31.5 233.396,30.9219 L233.396,33.6406 Z " fill="#000000"/><text fill="#000000" font-family="sans-serif" font-size="14" lengthAdjust="spacing" textLength="101.4385" x="250.9272" y="32.8467">CoreExtension</text><line style="stroke:#181818;stroke-width:0.5;" x1="77" x2="493.793" y1="44" y2="44"/><text fill="#000000" font-family="sans-serif" font-size="14" lengthAdjust="spacing" textLength="406.793" x="82" y="60.9951">all packages defined in "/META-INF/maven/extension.xml"</text><line style="stroke:#181818;stroke-width:0.5;" x1="77" x2="493.793" y1="68.2969" y2="68.2969"/></g><!--class BuildExtension--><g class="entity" data-qualified-name="BuildExtension" data-source-line="24" id="ent0013"><rect fill="#F1F1F1" height="80.5938" rx="2.5" ry="2.5" style="stroke:#181818;stroke-width:0.5;" width="135.8721" x="622.5" y="112"/><ellipse cx="637.5" cy="128" fill="#ADD1B2" rx="11" ry="11" style="stroke:#181818;stroke-width:1;"/><path d="M640.4688,133.6406 Q639.8906,133.9375 639.25,134.0781 Q638.6094,134.2344 637.9063,134.2344 Q635.4063,134.2344 634.0781,132.5938 Q632.7656,130.9375 632.7656,127.8125 Q632.7656,124.6875 634.0781,123.0313 Q635.4063,121.375 637.9063,121.375 Q638.6094,121.375 639.25,121.5313 Q639.9063,121.6875 640.4688,121.9844 L640.4688,124.7031 Q639.8438,124.125 639.25,123.8594 Q638.6563,123.5781 638.0313,123.5781 Q636.6875,123.5781 636,124.6563 Q635.3125,125.7188 635.3125,127.8125 Q635.3125,129.9063 636,130.9844 Q636.6875,132.0469 638.0313,132.0469 Q638.6563,132.0469 639.25,131.7813 Q639.8438,131.5 640.4688,130.9219 L640.4688,133.6406 Z " fill="#000000"/><text fill="#000000" font-family="sans-serif" font-size="14" lengthAdjust="spacing" textLength="103.8721" x="651.5" y="132.8467">BuildExtension</text><line style="stroke:#181818;stroke-width:0.5;" x1="623.5" x2="757.3721" y1="144" y2="144"/><text fill="#000000" font-family="sans-serif" font-size="14" lengthAdjust="spacing" textLength="97.7402" x="628.5" y="160.9951">dependencies</text><text fill="#000000" font-family="sans-serif" font-size="14" lengthAdjust="spacing" textLength="50.6611" x="628.5" y="177.292">classes</text><line style="stroke:#181818;stroke-width:0.5;" x1="623.5" x2="757.3721" y1="184.5938" y2="184.5938"/></g><g class="entity" data-qualified-name="GMN15" data-source-line="47" id="ent0016"><path d="M309,357 L309,365.5 L290.5781,369.5 L309,373.5 L309,382.1328 A0,0 0 0 0 309,382.1328 L444.1753,382.1328 A0,0 0 0 0 444.1753,382.1328 L444.1753,367 L434.1753,357 L309,357 A0,0 0 0 0 309,357" fill="#FEFFDD" style="stroke:#181818;stroke-width:0.5;"/><path d="M434.1753,357 L434.1753,367 L444.1753,367 L434.1753,357" fill="#FEFFDD" style="stroke:#181818;stroke-width:0.5;"/><text fill="#000000" font-family="sans-serif" font-size="13" lengthAdjust="spacing" textLength="114.1753" x="315" y="374.0669">Per GAV of plugin</text></g><g class="entity" data-qualified-name="GMN18" data-source-line="48" id="ent0019"><path d="M450.5,248.5 L450.5,257 L432.5781,261 L450.5,265 L450.5,273.6328 A0,0 0 0 0 450.5,273.6328 L604.3628,273.6328 A0,0 0 0 0 604.3628,273.6328 L604.3628,258.5 L594.3628,248.5 L450.5,248.5 A0,0 0 0 0 450.5,248.5" fill="#FEFFDD" style="stroke:#181818;stroke-width:0.5;"/><path d="M594.3628,248.5 L594.3628,258.5 L604.3628,258.5 L594.3628,248.5" fill="#FEFFDD" style="stroke:#181818;stroke-width:0.5;"/><text fill="#000000" font-family="sans-serif" font-size="13" lengthAdjust="spacing" textLength="132.8628" x="456.5" y="265.5669">One per Maven POM</text></g><g class="entity" data-qualified-name="GMN21" data-source-line="49" id="ent0022"><path d="M330.5,140 L330.5,148.5 L312.5156,152.5 L330.5,156.5 L330.5,165.1328 A0,0 0 0 0 330.5,165.1328 L604.0479,165.1328 A0,0 0 0 0 604.0479,165.1328 L604.0479,150 L594.0479,140 L330.5,140 A0,0 0 0 0 330.5,140" fill="#FEFFDD" style="stroke:#181818;stroke-width:0.5;"/><path d="M594.0479,140 L594.0479,150 L604.0479,150 L594.0479,140" fill="#FEFFDD" style="stroke:#181818;stroke-width:0.5;"/><text fill="#000000" font-family="sans-serif" font-size="13" lengthAdjust="spacing" textLength="252.5479" x="336.5" y="157.0669">Just composition of all Core Extensions</text></g><g class="entity" data-qualified-name="GMN24" data-source-line="50" id="ent0025"><path d="M169,248.5 L169,257 L151.1465,261 L169,265 L169,273.6328 A0,0 0 0 0 169,273.6328 L333.9966,273.6328 A0,0 0 0 0 333.9966,273.6328 L333.9966,258.5 L323.9966,248.5 L169,248.5 A0,0 0 0 0 169,248.5" fill="#FEFFDD" style="stroke:#181818;stroke-width:0.5;"/><path d="M323.9966,248.5 L323.9966,258.5 L333.9966,258.5 L323.9966,248.5" fill="#FEFFDD" style="stroke:#181818;stroke-width:0.5;"/><text fill="#000000" font-family="sans-serif" font-size="13" lengthAdjust="spacing" textLength="143.9966" x="175" y="265.5669">${maven.home}/boot</text></g><g class="entity" data-qualified-name="GMN27" data-source-line="51" id="ent0028"><path d="M776.5,140 L776.5,148.5 L758.75,152.5 L776.5,156.5 L776.5,165.1328 A0,0 0 0 0 776.5,165.1328 L1332.3345,165.1328 A0,0 0 0 0 1332.3345,165.1328 L1332.3345,150 L1322.3345,140 L776.5,140 A0,0 0 0 0 776.5,140" fill="#FEFFDD" style="stroke:#181818;stroke-width:0.5;"/><path d="M1322.3345,140 L1322.3345,150 L1332.3345,150 L1322.3345,140" fill="#FEFFDD" style="stroke:#181818;stroke-width:0.5;"/><text fill="#000000" font-family="sans-serif" font-size="13" lengthAdjust="spacing" textLength="534.8345" x="782.5" y="157.0669">Per GAV of plugin loaded with &lt;extensions&gt;true&lt;/extensions&gt; or build extension</text></g><g class="link" data-entity-1="ent0002" data-entity-2="ent0003" data-link-type="aggregation" id="lnk4"><polygon fill="none" points="78.5,184.5905,74.5,190.5905,78.5,196.5905,82.5,190.5905,78.5,184.5905" style="stroke:#181818;stroke-width:1;"/><path d="M78.5,196.5905 C78.5,210.4661 78.5,214.7849 78.5,228.6865" fill="none" style="stroke:#181818;stroke-width:1;"/></g><g class="link" data-entity-1="ent0003" data-entity-2="ent0005" data-link-type="aggregation" id="lnk6"><polygon fill="none" points="124.3329,293.0905,127.0528,299.769,134.2637,299.827,131.5438,293.1485,124.3329,293.0905" style="stroke:#181818;stroke-width:1;"/><path d="M134.2637,299.827 C151.8225,311.7379 162.1045,318.7126 180.4391,331.1498" fill="none" style="stroke:#181818;stroke-width:1;"/><text fill="#000000" font-family="sans-serif" font-size="13" lengthAdjust="spacing" textLength="36.5625" x="143.4391" y="327.2167">many</text><text fill="#000000" font-family="sans-serif" font-size="13" lengthAdjust="spacing" textLength="8.271" x="115.3329" y="306.1574">1</text></g><g class="link" data-entity-1="ent0007" data-entity-2="ent0008" data-link-type="aggregation" id="lnk9"><polygon fill="none" points="306.1528,176.7473,307.2539,183.8738,314.2557,185.5985,313.1547,178.4719,306.1528,176.7473" style="stroke:#181818;stroke-width:1;"/><path d="M314.2557,185.5985 C319.2064,191.0062 316.4271,187.8383 321.5,193 C336.231,207.9887 353.3493,224.1766 367.086,236.8853" fill="none" style="stroke:#181818;stroke-width:1;"/><text fill="#000000" font-family="sans-serif" font-size="13" lengthAdjust="spacing" textLength="36.5625" x="330.086" y="232.9522">many</text><text fill="#000000" font-family="sans-serif" font-size="13" lengthAdjust="spacing" textLength="8.271" x="297.1528" y="189.8142">1</text></g><g class="link" data-entity-1="ent0010" data-entity-2="ent0007" data-link-type="aggregation" id="lnk11"><polygon fill="none" points="285.5,76.0905,281.5,82.0905,285.5,88.0905,289.5,82.0905,285.5,76.0905" style="stroke:#181818;stroke-width:1;"/><path d="M285.5,88.0905 C285.5,104.7903 285.5,113.0291 285.5,128.3336" fill="none" style="stroke:#181818;stroke-width:1;"/><text fill="#000000" font-family="sans-serif" font-size="13" lengthAdjust="spacing" textLength="8.271" x="276.5" y="124.4005">1</text><text fill="#000000" font-family="sans-serif" font-size="13" lengthAdjust="spacing" textLength="36.5625" x="248.5" y="89.1574">many</text></g><g class="link" data-entity-1="ent0008" data-entity-2="ent0005" data-link-type="aggregation" id="lnk12"><polygon fill="none" points="290.7954,330.9907,298.0063,330.9327,300.7262,324.2542,293.5153,324.3122,290.7954,330.9907" style="stroke:#181818;stroke-width:1;"/><path d="M358.4333,285.1089 C338.6827,298.5066 323.2674,308.9635 300.7262,324.2542" fill="none" style="stroke:#181818;stroke-width:1;"/><text fill="#000000" font-family="sans-serif" font-size="13" lengthAdjust="spacing" textLength="36.5625" x="291.7954" y="327.0576">many</text><text fill="#000000" font-family="sans-serif" font-size="13" lengthAdjust="spacing" textLength="8.271" x="349.4333" y="298.1758">1</text></g><g class="link" data-entity-1="ent0013" data-entity-2="ent0008" data-link-type="aggregation" id="lnk14"><polygon fill="none" points="622.4886,189.5851,615.4268,188.125,611.363,194.0819,618.4247,195.5421,622.4886,189.5851" style="stroke:#181818;stroke-width:1;"/><path d="M611.363,194.0819 C537.737,220.1389 513.8778,199.6537 441.5,229 C436.0893,231.1938 430.6151,233.9848 425.384,236.9898" fill="none" style="stroke:#181818;stroke-width:1;"/><text fill="#000000" font-family="sans-serif" font-size="13" lengthAdjust="spacing" textLength="8.271" x="416.384" y="233.0567">1</text><text fill="#000000" font-family="sans-serif" font-size="13" lengthAdjust="spacing" textLength="36.5625" x="585.4886" y="185.652">many</text></g></g></svg>