<?plantuml 1.2026.1?><svg xmlns="http://www.w3.org/2000/svg" xmlns:xlink="http://www.w3.org/1999/xlink" contentStyleType="text/css" data-diagram-type="CLASS" height="477px" preserveAspectRatio="none" style="width:1341px;height:477px;background:#FFFFFF;" version="1.1" viewBox="0 0 1341 477" width="1341px" zoomAndPan="magnify"><defs/><g><!--cluster org--><g class="cluster" data-qualified-name="org" data-source-line="4" id="ent0004"><path d="M8.5,6 L36.0439,6 A3.75,3.75 0 0 1 38.5439,8.5 L45.5439,28.2969 L357.5,28.2969 A2.5,2.5 0 0 1 360,30.7969 L360,220.5 A2.5,2.5 0 0 1 357.5,223 L8.5,223 A2.5,2.5 0 0 1 6,220.5 L6,8.5 A2.5,2.5 0 0 1 8.5,6" fill="none" style="stroke:#000000;stroke-width:1.5;"/><line style="stroke:#000000;stroke-width:1.5;" x1="6" x2="45.5439" y1="28.2969" y2="28.2969"/><text fill="#000000" font-family="sans-serif" font-size="14" font-weight="bold" lengthAdjust="spacing" textLength="26.5439" x="10" y="20.9951">org</text></g><!--cluster springframework--><g class="cluster" data-qualified-name="org.springframework" data-source-line="4" id="ent0005"><path d="M32.5,49 L168.8379,49 A3.75,3.75 0 0 1 171.3379,51.5 L178.3379,71.2969 L333.5,71.2969 A2.5,2.5 0 0 1 336,73.7969 L336,196.5 A2.5,2.5 0 0 1 333.5,199 L32.5,199 A2.5,2.5 0 0 1 30,196.5 L30,51.5 A2.5,2.5 0 0 1 32.5,49" fill="none" style="stroke:#000000;stroke-width:1.5;"/><line style="stroke:#000000;stroke-width:1.5;" x1="30" x2="178.3379" y1="71.2969" y2="71.2969"/><text fill="#000000" font-family="sans-serif" font-size="14" font-weight="bold" lengthAdjust="spacing" textLength="135.3379" x="34" y="63.9951">springframework</text></g><!--cluster modulith--><g class="cluster" data-qualified-name="org.springframework.modulith" data-source-line="3" id="ent0002"><path d="M56.5,92 L127.9512,92 A3.75,3.75 0 0 1 130.4512,94.5 L137.4512,114.2969 L309.5,114.2969 A2.5,2.5 0 0 1 312,116.7969 L312,172.5 A2.5,2.5 0 0 1 309.5,175 L56.5,175 A2.5,2.5 0 0 1 54,172.5 L54,94.5 A2.5,2.5 0 0 1 56.5,92" fill="none" style="stroke:#000000;stroke-width:1.5;"/><line style="stroke:#000000;stroke-width:1.5;" x1="54" x2="137.4512" y1="114.2969" y2="114.2969"/><text fill="#000000" font-family="sans-serif" font-size="14" font-weight="bold" lengthAdjust="spacing" textLength="70.4512" x="58" y="106.9951">modulith</text></g><!--cluster com--><g class="cluster" data-qualified-name="com" data-source-line="8" id="ent0008"><path d="M386.5,6 L420.0049,6 A3.75,3.75 0 0 1 422.5049,8.5 L429.5049,28.2969 L1331.5,28.2969 A2.5,2.5 0 0 1 1334,30.7969 L1334,467.5 A2.5,2.5 0 0 1 1331.5,470 L386.5,470 A2.5,2.5 0 0 1 384,467.5 L384,8.5 A2.5,2.5 0 0 1 386.5,6" fill="none" style="stroke:#000000;stroke-width:1.5;"/><line style="stroke:#000000;stroke-width:1.5;" x1="384" x2="429.5049" y1="28.2969" y2="28.2969"/><text fill="#000000" font-family="sans-serif" font-size="14" font-weight="bold" lengthAdjust="spacing" textLength="32.5049" x="388" y="20.9951">com</text></g><!--cluster acme--><g class="cluster" data-qualified-name="com.acme" data-source-line="8" id="ent0009"><path d="M410.5,49 L453.3291,49 A3.75,3.75 0 0 1 455.8291,51.5 L462.8291,71.2969 L1307.5,71.2969 A2.5,2.5 0 0 1 1310,73.7969 L1310,443.5 A2.5,2.5 0 0 1 1307.5,446 L410.5,446 A2.5,2.5 0 0 1 408,443.5 L408,51.5 A2.5,2.5 0 0 1 410.5,49" fill="none" style="stroke:#000000;stroke-width:1.5;"/><line style="stroke:#000000;stroke-width:1.5;" x1="408" x2="462.8291" y1="71.2969" y2="71.2969"/><text fill="#000000" font-family="sans-serif" font-size="14" font-weight="bold" lengthAdjust="spacing" textLength="41.8291" x="412" y="63.9951">acme</text></g><!--cluster moduleA--><g class="cluster" data-qualified-name="com.acme.moduleA" data-source-line="7" id="ent0006"><path d="M873.5,247 L943.8232,247 A3.75,3.75 0 0 1 946.3232,249.5 L953.3232,269.2969 L1283.5,269.2969 A2.5,2.5 0 0 1 1286,271.7969 L1286,419.5 A2.5,2.5 0 0 1 1283.5,422 L873.5,422 A2.5,2.5 0 0 1 871,419.5 L871,249.5 A2.5,2.5 0 0 1 873.5,247" fill="none" style="stroke:#000000;stroke-width:1.5;"/><line style="stroke:#000000;stroke-width:1.5;" x1="871" x2="953.3232" y1="269.2969" y2="269.2969"/><text fill="#000000" font-family="sans-serif" font-size="14" font-weight="bold" lengthAdjust="spacing" textLength="69.3232" x="875" y="261.9951">moduleA</text></g><!--cluster moduleB--><g class="cluster" data-qualified-name="com.acme.moduleB" data-source-line="13" id="ent0013"><path d="M434.5,92 L504.6592,92 A3.75,3.75 0 0 1 507.1592,94.5 L514.1592,114.2969 L844.5,114.2969 A2.5,2.5 0 0 1 847,116.7969 L847,327.5 A2.5,2.5 0 0 1 844.5,330 L434.5,330 A2.5,2.5 0 0 1 432,327.5 L432,94.5 A2.5,2.5 0 0 1 434.5,92" fill="none" style="stroke:#000000;stroke-width:1.5;"/><line style="stroke:#000000;stroke-width:1.5;" x1="432" x2="514.1592" y1="114.2969" y2="114.2969"/><text fill="#000000" font-family="sans-serif" font-size="14" font-weight="bold" lengthAdjust="spacing" textLength="69.1592" x="436" y="106.9951">moduleB</text></g><!--class ApplicationModuleInitializer--><g class="entity" data-qualified-name="org.springframework.modulith.ApplicationModuleInitializer" data-source-line="4" id="ent0003"><rect fill="#F1F1F1" height="32" rx="2.5" ry="2.5" style="stroke:#181818;stroke-width:0.5;" width="225.4775" x="70.26" y="127"/><ellipse cx="85.26" cy="143" fill="#B4A7E5" rx="11" ry="11" style="stroke:#181818;stroke-width:1;"/><path d="M81.1819,138.7656 L81.1819,136.6094 L88.5725,136.6094 L88.5725,138.7656 L86.1038,138.7656 L86.1038,146.8438 L88.5725,146.8438 L88.5725,149 L81.1819,149 L81.1819,146.8438 L83.6506,146.8438 L83.6506,138.7656 L81.1819,138.7656 Z " fill="#000000"/><text fill="#000000" font-family="sans-serif" font-size="14" font-style="italic" lengthAdjust="spacing" textLength="193.4775" x="99.26" y="147.8467">ApplicationModuleInitializer</text></g><!--class InitializerA--><g class="entity" data-qualified-name="com.acme.moduleA.InitializerA" data-source-line="8" id="ent0007"><rect fill="#F1F1F1" height="32" rx="2.5" ry="2.5" style="stroke:#181818;stroke-width:0.5;" width="105.9238" x="1104.04" y="374"/><ellipse cx="1119.04" cy="390" fill="#ADD1B2" rx="11" ry="11" style="stroke:#181818;stroke-width:1;"/><path d="M1122.0088,395.6406 Q1121.4306,395.9375 1120.79,396.0781 Q1120.1494,396.2344 1119.4463,396.2344 Q1116.9463,396.2344 1115.6181,394.5938 Q1114.3056,392.9375 1114.3056,389.8125 Q1114.3056,386.6875 1115.6181,385.0313 Q1116.9463,383.375 1119.4463,383.375 Q1120.1494,383.375 1120.79,383.5313 Q1121.4463,383.6875 1122.0088,383.9844 L1122.0088,386.7031 Q1121.3838,386.125 1120.79,385.8594 Q1120.1963,385.5781 1119.5713,385.5781 Q1118.2275,385.5781 1117.54,386.6563 Q1116.8525,387.7188 1116.8525,389.8125 Q1116.8525,391.9063 1117.54,392.9844 Q1118.2275,394.0469 1119.5713,394.0469 Q1120.1963,394.0469 1120.79,393.7813 Q1121.3838,393.5 1122.0088,392.9219 L1122.0088,395.6406 Z " fill="#000000"/><text fill="#000000" font-family="sans-serif" font-size="14" lengthAdjust="spacing" textLength="73.9238" x="1133.04" y="394.8467">InitializerA</text></g><!--class ApplicationModuleInitializer--><g class="entity" data-qualified-name="com.acme.moduleA.ApplicationModuleInitializer" data-source-line="8" id="ent0010"><rect fill="#F1F1F1" height="32" rx="2.5" ry="2.5" style="stroke:#181818;stroke-width:0.5;" width="225.4775" x="1044.26" y="282"/><ellipse cx="1059.26" cy="298" fill="#B4A7E5" rx="11" ry="11" style="stroke:#181818;stroke-width:1;"/><path d="M1055.1819,293.7656 L1055.1819,291.6094 L1062.5725,291.6094 L1062.5725,293.7656 L1060.1038,293.7656 L1060.1038,301.8438 L1062.5725,301.8438 L1062.5725,304 L1055.1819,304 L1055.1819,301.8438 L1057.6506,301.8438 L1057.6506,293.7656 L1055.1819,293.7656 Z " fill="#000000"/><text fill="#000000" font-family="sans-serif" font-size="14" font-style="italic" lengthAdjust="spacing" textLength="193.4775" x="1073.26" y="302.8467">ApplicationModuleInitializer</text></g><!--class ComponentA--><g class="entity" data-qualified-name="com.acme.moduleA.ComponentA" data-source-line="10" id="ent0012"><rect fill="#F1F1F1" height="32" rx="2.5" ry="2.5" style="stroke:#181818;stroke-width:0.5;" width="122.8564" x="886.57" y="282"/><ellipse cx="901.57" cy="298" fill="#ADD1B2" rx="11" ry="11" style="stroke:#181818;stroke-width:1;"/><path d="M904.5388,303.6406 Q903.9606,303.9375 903.32,304.0781 Q902.6794,304.2344 901.9763,304.2344 Q899.4763,304.2344 898.1481,302.5938 Q896.8356,300.9375 896.8356,297.8125 Q896.8356,294.6875 898.1481,293.0313 Q899.4763,291.375 901.9763,291.375 Q902.6794,291.375 903.32,291.5313 Q903.9763,291.6875 904.5388,291.9844 L904.5388,294.7031 Q903.9138,294.125 903.32,293.8594 Q902.7263,293.5781 902.1013,293.5781 Q900.7575,293.5781 900.07,294.6563 Q899.3825,295.7188 899.3825,297.8125 Q899.3825,299.9063 900.07,300.9844 Q900.7575,302.0469 902.1013,302.0469 Q902.7263,302.0469 903.32,301.7813 Q903.9138,301.5 904.5388,300.9219 L904.5388,303.6406 Z " fill="#000000"/><text fill="#000000" font-family="sans-serif" font-size="14" lengthAdjust="spacing" textLength="90.8564" x="915.57" y="302.8467">ComponentA</text></g><!--class ComponentB--><g class="entity" data-qualified-name="com.acme.moduleB.ComponentB" data-source-line="15" id="ent0014"><rect fill="#F1F1F1" height="32" rx="2.5" ry="2.5" style="stroke:#181818;stroke-width:0.5;" width="122.8838" x="708.56" y="127"/><ellipse cx="723.56" cy="143" fill="#ADD1B2" rx="11" ry="11" style="stroke:#181818;stroke-width:1;"/><path d="M726.5288,148.6406 Q725.9506,148.9375 725.31,149.0781 Q724.6694,149.2344 723.9663,149.2344 Q721.4663,149.2344 720.1381,147.5938 Q718.8256,145.9375 718.8256,142.8125 Q718.8256,139.6875 720.1381,138.0313 Q721.4663,136.375 723.9663,136.375 Q724.6694,136.375 725.31,136.5313 Q725.9663,136.6875 726.5288,136.9844 L726.5288,139.7031 Q725.9038,139.125 725.31,138.8594 Q724.7163,138.5781 724.0913,138.5781 Q722.7475,138.5781 722.06,139.6563 Q721.3725,140.7188 721.3725,142.8125 Q721.3725,144.9063 722.06,145.9844 Q722.7475,147.0469 724.0913,147.0469 Q724.7163,147.0469 725.31,146.7813 Q725.9038,146.5 726.5288,145.9219 L726.5288,148.6406 Z " fill="#000000"/><text fill="#000000" font-family="sans-serif" font-size="14" lengthAdjust="spacing" textLength="90.8838" x="737.56" y="147.8467">ComponentB</text></g><!--class InitializerB--><g class="entity" data-qualified-name="com.acme.moduleB.InitializerB" data-source-line="17" id="ent0015"><rect fill="#F1F1F1" height="32" rx="2.5" ry="2.5" style="stroke:#181818;stroke-width:0.5;" width="105.9512" x="508.02" y="282"/><ellipse cx="523.02" cy="298" fill="#ADD1B2" rx="11" ry="11" style="stroke:#181818;stroke-width:1;"/><path d="M525.9888,303.6406 Q525.4106,303.9375 524.77,304.0781 Q524.1294,304.2344 523.4263,304.2344 Q520.9263,304.2344 519.5981,302.5938 Q518.2856,300.9375 518.2856,297.8125 Q518.2856,294.6875 519.5981,293.0313 Q520.9263,291.375 523.4263,291.375 Q524.1294,291.375 524.77,291.5313 Q525.4263,291.6875 525.9888,291.9844 L525.9888,294.7031 Q525.3638,294.125 524.77,293.8594 Q524.1763,293.5781 523.5513,293.5781 Q522.2075,293.5781 521.52,294.6563 Q520.8325,295.7188 520.8325,297.8125 Q520.8325,299.9063 521.52,300.9844 Q522.2075,302.0469 523.5513,302.0469 Q524.1763,302.0469 524.77,301.7813 Q525.3638,301.5 525.9888,300.9219 L525.9888,303.6406 Z " fill="#000000"/><text fill="#000000" font-family="sans-serif" font-size="14" lengthAdjust="spacing" textLength="73.9512" x="537.02" y="302.8467">InitializerB</text></g><!--class ApplicationModuleInitializer--><g class="entity" data-qualified-name="com.acme.moduleB.ApplicationModuleInitializer" data-source-line="17" id="ent0016"><rect fill="#F1F1F1" height="32" rx="2.5" ry="2.5" style="stroke:#181818;stroke-width:0.5;" width="225.4775" x="448.26" y="127"/><ellipse cx="463.26" cy="143" fill="#B4A7E5" rx="11" ry="11" style="stroke:#181818;stroke-width:1;"/><path d="M459.1819,138.7656 L459.1819,136.6094 L466.5725,136.6094 L466.5725,138.7656 L464.1038,138.7656 L464.1038,146.8438 L466.5725,146.8438 L466.5725,149 L459.1819,149 L459.1819,146.8438 L461.6506,146.8438 L461.6506,138.7656 L459.1819,138.7656 Z " fill="#000000"/><text fill="#000000" font-family="sans-serif" font-size="14" font-style="italic" lengthAdjust="spacing" textLength="193.4775" x="477.26" y="147.8467">ApplicationModuleInitializer</text></g><!--reverse link ApplicationModuleInitializer to InitializerA--><g class="link" data-entity-1="ent0010" data-entity-2="ent0007" data-link-type="extension" data-source-line="8" id="lnk11"><path d="M1157,332.27 C1157,348.82 1157,357.08 1157,373.66" fill="none" id="ApplicationModuleInitializer-backto-InitializerA" style="stroke:#181818;stroke-width:1;stroke-dasharray:7,7;"/><polygon fill="none" points="1157,314.27,1151,332.27,1163,332.27,1157,314.27" style="stroke:#181818;stroke-width:1;"/></g><!--reverse link ApplicationModuleInitializer to InitializerB--><g class="link" data-entity-1="ent0016" data-entity-2="ent0015" data-link-type="extension" data-source-line="17" id="lnk17"><path d="M561,177.23 C561,206.56 561,252.55 561,281.83" fill="none" id="ApplicationModuleInitializer-backto-InitializerB" style="stroke:#181818;stroke-width:1;stroke-dasharray:7,7;"/><polygon fill="none" points="561,159.23,555,177.23,567,177.23,561,159.23" style="stroke:#181818;stroke-width:1;"/></g><!--link ComponentB to ComponentA--><g class="link" data-entity-1="ent0014" data-entity-2="ent0012" data-link-type="dependency" data-source-line="20" id="lnk18"><path codeLine="20" d="M787.72,159.23 C821.75,188.48 891.3599,248.3089 925.5399,277.6889" fill="none" id="ComponentB-to-ComponentA" style="stroke:#181818;stroke-width:1;"/><polygon fill="#181818" points="930.09,281.6,925.8723,272.7,926.2983,278.3407,920.6575,278.7667,930.09,281.6" style="stroke:#181818;stroke-width:1;"/></g><?plantuml-src ZOv12i8m44NtESLSe3s2aBfouI76TDeEpIH34X4Lxsv4i0MbkFwyz_x4FG69bYi8oObIDaRHpJWIn3IsMHE7SKWeT8bfRYNsPyzbWhlXK2WDw0YigcU7XMCuldOw12wCdc-Kp6CHkYWjEg6tXMoL03YFESEAiC2YdeH2oTlg3xsFeZ5Km6xakfhx9ZhpwqFtzuVQMrpGDBlLcIS0?></g></svg>