<?plantuml 1.2026.1?><svg xmlns="http://www.w3.org/2000/svg" xmlns:xlink="http://www.w3.org/1999/xlink" contentStyleType="text/css" data-diagram-type="STATE" height="317px" preserveAspectRatio="none" style="width:624px;height:317px;background:#FFFFFF;" version="1.1" viewBox="0 0 624 317" width="624px" zoomAndPan="magnify"><defs/><g><g><rect fill="#F1F1F1" height="50" rx="12.5" ry="12.5" style="stroke:#181818;stroke-width:0.5;" width="99.2627" x="319.49" y="7"/><line style="stroke:#181818;stroke-width:0.5;" x1="319.49" x2="418.7527" y1="33.2969" y2="33.2969"/><text fill="#000000" font-family="sans-serif" font-size="14" lengthAdjust="spacing" textLength="79.2627" x="329.49" y="24.9951">PUBLISHED</text></g><g><rect fill="#F1F1F1" height="50" rx="12.5" ry="12.5" style="stroke:#181818;stroke-width:0.5;" width="111.0342" x="313.61" y="134"/><line style="stroke:#181818;stroke-width:0.5;" x1="313.61" x2="424.6442" y1="160.2969" y2="160.2969"/><text fill="#000000" font-family="sans-serif" font-size="14" lengthAdjust="spacing" textLength="91.0342" x="323.61" y="151.9951">PROCESSING</text></g><g><rect fill="#F1F1F1" height="50" rx="12.5" ry="12.5" style="stroke:#181818;stroke-width:0.5;" width="106.1396" x="511.05" y="134"/><line style="stroke:#181818;stroke-width:0.5;" x1="511.05" x2="617.1896" y1="160.2969" y2="160.2969"/><text fill="#000000" font-family="sans-serif" font-size="14" lengthAdjust="spacing" textLength="86.1396" x="521.05" y="151.9951">COMPLETED</text></g><g><rect fill="#F1F1F1" height="50" rx="12.5" ry="12.5" style="stroke:#181818;stroke-width:0.5;" width="69.1846" x="182.53" y="261"/><line style="stroke:#181818;stroke-width:0.5;" x1="182.53" x2="251.7146" y1="287.2969" y2="287.2969"/><text fill="#000000" font-family="sans-serif" font-size="14" lengthAdjust="spacing" textLength="49.1846" x="192.53" y="278.9951">FAILED</text></g><g><rect fill="#F1F1F1" height="50" rx="12.5" ry="12.5" style="stroke:#181818;stroke-width:0.5;" width="120.249" x="7" y="134"/><line style="stroke:#181818;stroke-width:0.5;" x1="7" x2="127.249" y1="160.2969" y2="160.2969"/><text fill="#000000" font-family="sans-serif" font-size="14" lengthAdjust="spacing" textLength="100.249" x="17" y="151.9951">RESUBMITTED</text></g><ellipse cx="191.12" cy="32" fill="#222222" rx="10" ry="10" style="stroke:#222222;stroke-width:1;"/><!--link *start* to PUBLISHED--><g class="link" data-entity-1="ent0002" data-entity-2="ent0002" data-link-type="dependency" data-source-line="7" id="lnk3"><path d="M201.46,32 C223.95,32 272.54,32 313.36,32" fill="none" id="*start*-to-PUBLISHED" style="stroke:#181818;stroke-width:1;"/><polygon fill="#181818" points="319.36,32,310.36,28,314.36,32,310.36,36,319.36,32" style="stroke:#181818;stroke-width:1;"/><text fill="#000000" font-family="sans-serif" font-size="13" lengthAdjust="spacing" textLength="82.5767" x="219.31" y="25.0669">event stored</text></g><!--link PUBLISHED to PROCESSING--><g class="link" data-entity-1="ent0002" data-entity-2="ent0003" data-link-type="dependency" data-source-line="8" id="lnk4"><path d="M369.12,57.4 C369.12,79.42 369.12,105.66 369.12,127.66" fill="none" id="PUBLISHED-to-PROCESSING" style="stroke:#181818;stroke-width:1;"/><polygon fill="#181818" points="369.12,133.66,373.12,124.66,369.12,128.66,365.12,124.66,369.12,133.66" style="stroke:#181818;stroke-width:1;"/><text fill="#000000" font-family="sans-serif" font-size="13" lengthAdjust="spacing" textLength="106.7422" x="370.12" y="100.0669">listener picks up</text></g><!--link PROCESSING to COMPLETED--><g class="link" data-entity-1="ent0003" data-entity-2="ent0004" data-link-type="dependency" data-source-line="9" id="lnk5"><path d="M425,159 C451.9,159 478,159 504.59,159" fill="none" id="PROCESSING-to-COMPLETED" style="stroke:#181818;stroke-width:1;"/><polygon fill="#181818" points="510.59,159,501.59,155,505.59,159,501.59,163,510.59,159" style="stroke:#181818;stroke-width:1;"/><text fill="#000000" font-family="sans-serif" font-size="13" lengthAdjust="spacing" textLength="50.8511" x="442.85" y="152.0669">success</text></g><!--link PROCESSING to FAILED--><g class="link" data-entity-1="ent0003" data-entity-2="ent0005" data-link-type="dependency" data-source-line="10" id="lnk6"><path d="M339.46,184.4 C312.67,206.42 278.1148,234.8496 251.3548,256.8496" fill="none" id="PROCESSING-to-FAILED" style="stroke:#181818;stroke-width:1;"/><polygon fill="#181818" points="246.72,260.66,256.2124,258.0343,250.5823,257.4847,251.1319,251.8546,246.72,260.66" style="stroke:#181818;stroke-width:1;"/><text fill="#000000" font-family="sans-serif" font-size="13" lengthAdjust="spacing" textLength="63.9907" x="303.12" y="227.0669">exception</text></g><!--reverse link RESUBMITTED to FAILED--><g class="link" data-entity-1="ent0006" data-entity-2="ent0005" data-link-type="dependency" data-source-line="11" id="lnk8"><path d="M101.0098,188.2406 C127.4398,210.2606 161.51,238.66 187.92,260.66" fill="none" id="RESUBMITTED-backto-FAILED" style="stroke:#181818;stroke-width:1;"/><polygon fill="#181818" points="96.4,184.4,100.7542,193.2341,100.2415,187.6005,105.875,187.0877,96.4,184.4" style="stroke:#181818;stroke-width:1;"/><text fill="#000000" font-family="sans-serif" font-size="13" lengthAdjust="spacing" textLength="57.9795" x="152.12" y="227.0669">resubmit</text></g><!--link RESUBMITTED to PROCESSING--><g class="link" data-entity-1="ent0006" data-entity-2="ent0003" data-link-type="dependency" data-source-line="12" id="lnk9"><path d="M127.51,159 C181.65,159 254.44,159 307.17,159" fill="none" id="RESUBMITTED-to-PROCESSING" style="stroke:#181818;stroke-width:1;"/><polygon fill="#181818" points="313.17,159,304.17,155,308.17,159,304.17,163,313.17,159" style="stroke:#181818;stroke-width:1;"/><text fill="#000000" font-family="sans-serif" font-size="13" lengthAdjust="spacing" textLength="150.5156" x="145.43" y="152.0669">resubmission triggered</text></g><?plantuml-src LO_D3e8m48JlVOgUJNW13oQ2LPk047vEneEM5HiH2BkeZsyRIC7ZpdoTpY1T2NXI-A7CZcB7SBpJE11P9a-7IGZYA0b5xe3zLeRkI4LM-97ChStEgmltUbqzoDlCkNpDuGqDSQIsXvBDXbUsdyQYxal3rXe96kXvfzKJ-T2nXUtINIdp0WUb0F6FcvB7hhR1Lq57kctO97art6tGOe31Ui3XzjB4bl8yQTbpGX5DA2U3L63M_G00?></g></svg>