<?plantuml 1.2026.1?><svg xmlns="http://www.w3.org/2000/svg" xmlns:xlink="http://www.w3.org/1999/xlink" contentStyleType="text/css" data-diagram-type="CLASS" height="521px" preserveAspectRatio="none" style="width:735px;height:521px;background:#FFFFFF;" version="1.1" viewBox="0 0 735 521" width="735px" zoomAndPan="magnify"><defs/><g><!--cluster Application--><g class="cluster" data-qualified-name="Application" data-source-line="14" id="ent0002"><path d="M8.5,6 L98.7979,6 A3.75,3.75 0 0 1 101.2979,8.5 L108.2979,28.2969 L725.5,28.2969 A2.5,2.5 0 0 1 728,30.7969 L728,511.88 A2.5,2.5 0 0 1 725.5,514.38 L8.5,514.38 A2.5,2.5 0 0 1 6,511.88 L6,8.5 A2.5,2.5 0 0 1 8.5,6" fill="none" style="stroke:#000000;stroke-width:1.5;"/><line style="stroke:#000000;stroke-width:1.5;" x1="6" x2="108.2979" y1="28.2969" y2="28.2969"/><text fill="#000000" font-family="sans-serif" font-size="14" font-weight="bold" lengthAdjust="spacing" textLength="89.2979" x="10" y="20.9951">Application</text><text fill="#000000" font-family="sans-serif" font-size="14" font-style="italic" lengthAdjust="spacing" textLength="85.5449" x="328.2275" y="43.292">&#171;Container&#187;</text></g><!--entity 4--><g class="entity" data-qualified-name="Application.4" data-source-line="15" id="ent0003"><rect fill="#DDDDDD" height="52.5938" rx="2.5" ry="2.5" style="stroke:#707070;stroke-width:0.5;" width="227.6826" x="59.16" y="316.19"/><rect fill="#DDDDDD" height="5" style="stroke:#707070;stroke-width:0.5;" width="10" x="54.16" y="321.19"/><rect fill="#DDDDDD" height="5" style="stroke:#707070;stroke-width:0.5;" width="10" x="54.16" y="358.7838"/><text fill="#000000" font-family="sans-serif" font-size="14" font-style="italic" lengthAdjust="spacing" textLength="158.4844" x="93.7591" y="339.1851">&#171;Component: Module&#187;</text><text fill="#000000" font-family="sans-serif" font-size="14" lengthAdjust="spacing" textLength="207.6826" x="69.16" y="355.482">com.acme.commerce.catalog</text></g><!--entity 3--><g class="entity" data-qualified-name="Application.3" data-source-line="18" id="ent0004"><rect fill="#DDDDDD" height="52.5938" rx="2.5" ry="2.5" style="stroke:#707070;stroke-width:0.5;" width="206.6279" x="69.69" y="445.79"/><rect fill="#DDDDDD" height="5" style="stroke:#707070;stroke-width:0.5;" width="10" x="64.69" y="450.79"/><rect fill="#DDDDDD" height="5" style="stroke:#707070;stroke-width:0.5;" width="10" x="64.69" y="488.3837"/><text fill="#000000" font-family="sans-serif" font-size="14" font-style="italic" lengthAdjust="spacing" textLength="158.4844" x="93.7618" y="468.7851">&#171;Component: Module&#187;</text><text fill="#000000" font-family="sans-serif" font-size="14" lengthAdjust="spacing" textLength="186.6279" x="79.69" y="485.082">com.acme.commerce.core</text></g><!--entity 7--><g class="entity" data-qualified-name="Application.7" data-source-line="21" id="ent0005"><rect fill="#DDDDDD" height="52.5938" rx="2.5" ry="2.5" style="stroke:#707070;stroke-width:0.5;" width="241.9219" x="322.04" y="316.19"/><rect fill="#DDDDDD" height="5" style="stroke:#707070;stroke-width:0.5;" width="10" x="317.04" y="321.19"/><rect fill="#DDDDDD" height="5" style="stroke:#707070;stroke-width:0.5;" width="10" x="317.04" y="358.7838"/><text fill="#000000" font-family="sans-serif" font-size="14" font-style="italic" lengthAdjust="spacing" textLength="158.4844" x="363.7588" y="339.1851">&#171;Component: Module&#187;</text><text fill="#000000" font-family="sans-serif" font-size="14" lengthAdjust="spacing" textLength="221.9219" x="332.04" y="355.482">com.acme.commerce.customer</text></g><!--entity 5--><g class="entity" data-qualified-name="Application.5" data-source-line="24" id="ent0006"><rect fill="#DDDDDD" height="52.5938" rx="2.5" ry="2.5" style="stroke:#707070;stroke-width:0.5;" width="242.626" x="87.69" y="57"/><rect fill="#DDDDDD" height="5" style="stroke:#707070;stroke-width:0.5;" width="10" x="82.69" y="62"/><rect fill="#DDDDDD" height="5" style="stroke:#707070;stroke-width:0.5;" width="10" x="82.69" y="99.5938"/><text fill="#000000" font-family="sans-serif" font-size="14" font-style="italic" lengthAdjust="spacing" textLength="158.4844" x="129.7608" y="79.9951">&#171;Component: Module&#187;</text><text fill="#000000" font-family="sans-serif" font-size="14" lengthAdjust="spacing" textLength="222.626" x="97.69" y="96.292">com.acme.commerce.inventory</text></g><!--entity 6--><g class="entity" data-qualified-name="Application.6" data-source-line="27" id="ent0007"><rect fill="#DDDDDD" height="52.5938" rx="2.5" ry="2.5" style="stroke:#707070;stroke-width:0.5;" width="213.5732" x="239.21" y="186.6"/><rect fill="#DDDDDD" height="5" style="stroke:#707070;stroke-width:0.5;" width="10" x="234.21" y="191.6"/><rect fill="#DDDDDD" height="5" style="stroke:#707070;stroke-width:0.5;" width="10" x="234.21" y="229.1938"/><text fill="#000000" font-family="sans-serif" font-size="14" font-style="italic" lengthAdjust="spacing" textLength="158.4844" x="266.7544" y="209.5951">&#171;Component: Module&#187;</text><text fill="#000000" font-family="sans-serif" font-size="14" lengthAdjust="spacing" textLength="193.5732" x="249.21" y="225.892">com.acme.commerce.order</text></g><!--link 4 to 3--><g class="link" data-entity-1="ent0003" data-entity-2="ent0004" data-link-type="dependency" data-source-line="31" id="lnk8"><path codeLine="31" d="M173,369 C173,391.26 173,417.37 173,439.61" fill="none" id="4-to-3" style="stroke:#707070;stroke-width:1;stroke-dasharray:7,7;"/><polygon fill="#707070" points="173,445.61,177,436.61,173,440.61,169,436.61,173,445.61" style="stroke:#707070;stroke-width:1;"/><text fill="#000000" font-family="sans-serif" font-size="13" lengthAdjust="spacing" textLength="55.7642" x="174" y="411.8569">depends</text><text fill="#000000" font-family="sans-serif" font-size="13" lengthAdjust="spacing" textLength="4.1323" x="229.7642" y="411.8569">&#160;</text><text fill="#000000" font-family="sans-serif" font-size="13" lengthAdjust="spacing" textLength="16.1929" x="233.8965" y="411.8569">on</text></g><!--link 5 to 4--><g class="link" data-entity-1="ent0006" data-entity-2="ent0003" data-link-type="dependency" data-source-line="32" id="lnk9"><path codeLine="32" d="M204.07,109.88 C200.2,130.53 194.83,160.37 191,186.6 C184.37,232 179.2357,279.2206 176.1157,309.9706" fill="none" id="5-to-4" style="stroke:#707070;stroke-width:1;stroke-dasharray:7,7;"/><polygon fill="#707070" points="175.51,315.94,180.3981,307.3898,176.0147,310.9655,172.4389,306.5822,175.51,315.94" style="stroke:#707070;stroke-width:1;"/><text fill="#000000" font-family="sans-serif" font-size="13" lengthAdjust="spacing" textLength="29.7832" x="192" y="217.4669">uses</text></g><!--link 5 to 3--><g class="link" data-entity-1="ent0006" data-entity-2="ent0004" data-link-type="dependency" data-source-line="33" id="lnk10"><path codeLine="33" d="M181.83,110.01 C142.04,149.75 69.65,230.5 42,316.19 C34.82,338.44 31.75,347.78 42,368.79 C58.39,402.37 86.5697,425.0719 115.4997,442.3619" fill="none" id="5-to-3" style="stroke:#707070;stroke-width:1;stroke-dasharray:7,7;"/><polygon fill="#707070" points="120.65,445.44,114.9766,437.3894,116.3581,442.8749,110.8725,444.2564,120.65,445.44" style="stroke:#707070;stroke-width:1;"/><text fill="#000000" font-family="sans-serif" font-size="13" lengthAdjust="spacing" textLength="29.7832" x="63" y="282.2569">uses</text></g><!--link 5 to 6--><g class="link" data-entity-1="ent0006" data-entity-2="ent0007" data-link-type="dependency" data-source-line="34" id="lnk11"><path codeLine="34" d="M222.01,110.07 C230.34,124.87 242.17,143.12 256,156.6 C267.56,167.86 276.6729,174.8034 290.3929,183.1434" fill="none" id="5-to-6" style="stroke:#707070;stroke-width:1;stroke-dasharray:7,7;"/><polygon fill="#707070" points="295.52,186.26,289.9071,178.1671,291.2474,183.6628,285.7517,185.0031,295.52,186.26" style="stroke:#707070;stroke-width:1;"/><text fill="#000000" font-family="sans-serif" font-size="13" lengthAdjust="spacing" textLength="29.7832" x="257" y="152.6669">uses</text></g><!--link 5 to 6--><g class="link" data-entity-1="ent0006" data-entity-2="ent0007" data-link-type="dependency" data-source-line="35" id="lnk12"><path codeLine="35" d="M252.7,109.95 C265.7,118.56 279.52,128.75 291,139.6 C305.68,153.46 316.0227,166.5914 326.1027,181.2014" fill="none" id="5-to-6-1" style="stroke:#707070;stroke-width:1;stroke-dasharray:7,7;"/><polygon fill="#707070" points="329.51,186.14,327.6914,176.4605,326.6705,182.0245,321.1066,181.0036,329.51,186.14" style="stroke:#707070;stroke-width:1;"/><text fill="#000000" font-family="sans-serif" font-size="13" lengthAdjust="spacing" textLength="42.104" x="307" y="152.6669">listens</text><text fill="#000000" font-family="sans-serif" font-size="13" lengthAdjust="spacing" textLength="4.1323" x="349.104" y="152.6669">&#160;</text><text fill="#000000" font-family="sans-serif" font-size="13" lengthAdjust="spacing" textLength="13.0508" x="353.2363" y="152.6669">to</text></g><!--link 6 to 4--><g class="link" data-entity-1="ent0007" data-entity-2="ent0003" data-link-type="dependency" data-source-line="36" id="lnk13"><path codeLine="36" d="M311.41,239.41 C281.33,261.59 242.7987,290.0086 212.6587,312.2386" fill="none" id="6-to-4" style="stroke:#707070;stroke-width:1;stroke-dasharray:7,7;"/><polygon fill="#707070" points="207.83,315.8,217.4473,313.677,211.8539,312.8321,212.6987,307.2387,207.83,315.8" style="stroke:#707070;stroke-width:1;"/><text fill="#000000" font-family="sans-serif" font-size="13" lengthAdjust="spacing" textLength="55.7642" x="270" y="282.2569">depends</text><text fill="#000000" font-family="sans-serif" font-size="13" lengthAdjust="spacing" textLength="4.1323" x="325.7642" y="282.2569">&#160;</text><text fill="#000000" font-family="sans-serif" font-size="13" lengthAdjust="spacing" textLength="16.1929" x="329.8965" y="282.2569">on</text></g><!--link 6 to 3--><g class="link" data-entity-1="ent0007" data-entity-2="ent0004" data-link-type="dependency" data-source-line="37" id="lnk14"><path codeLine="37" d="M449.83,239.69 C532.54,265.31 627.36,309.36 581,368.79 C543.88,416.36 390.6274,444.3469 282.4174,458.7769" fill="none" id="6-to-3" style="stroke:#707070;stroke-width:1;stroke-dasharray:7,7;"/><polygon fill="#707070" points="276.47,459.57,285.9198,462.3453,281.4261,458.9091,284.8623,454.4155,276.47,459.57" style="stroke:#707070;stroke-width:1;"/><text fill="#000000" font-family="sans-serif" font-size="13" lengthAdjust="spacing" textLength="55.7642" x="594" y="347.0569">depends</text><text fill="#000000" font-family="sans-serif" font-size="13" lengthAdjust="spacing" textLength="4.1323" x="649.7642" y="347.0569">&#160;</text><text fill="#000000" font-family="sans-serif" font-size="13" lengthAdjust="spacing" textLength="16.1929" x="653.8965" y="347.0569">on</text></g><!--link 6 to 7--><g class="link" data-entity-1="ent0007" data-entity-2="ent0005" data-link-type="dependency" data-source-line="38" id="lnk15"><path codeLine="38" d="M365.4,239.41 C382.31,261.66 403.0985,289.0038 420.0085,311.2438" fill="none" id="6-to-7" style="stroke:#707070;stroke-width:1;stroke-dasharray:7,7;"/><polygon fill="#707070" points="423.64,316.02,421.3768,306.4347,420.6137,312.0398,415.0086,311.2767,423.64,316.02" style="stroke:#707070;stroke-width:1;"/><text fill="#000000" font-family="sans-serif" font-size="13" lengthAdjust="spacing" textLength="29.7832" x="401" y="282.2569">uses</text></g><?plantuml-src dP9DQm8n48Rl-oi6lI-swWeYWdhsPA47yJ0aunfCCakIhThYVsyCsr8_wc4J2CayxxmPXl5xPIjqQE0h0_0xb7nGjeGjQaynWixnOS6Q7NH7lSk-14LWDsSdoTqYmQPYIpOynev4G5jgUemj1vgZs9UEQoiRkathXpxCaxJ5MeStEeQPLgKriG0GyI0NwS5XzQvasC5hxw8sU5oIzrZIIdqIlFIk2b-5aoQeZNx9pbaLYuawwCogIYk1GR7jm6IoO1jGMNBJQMhSRpOC4crUOrYoh3L5LLUc1UkeJleSXQ4yNWmv4IyOK7CPwURAhz_MZntTcOtQcjK-i4dDl3OSjZHKzYCci3lTEHOj7TDS9BTpDe1ytGp79f_65exZX5HafGUssV2Q3YAjFVdRUF-VUF4ahfKFP3q4pehxN_xKK3ojy8QEcX-_0G00?></g></svg>