<?plantuml 1.2026.1?><svg xmlns="http://www.w3.org/2000/svg" xmlns:xlink="http://www.w3.org/1999/xlink" contentStyleType="text/css" data-diagram-type="CLASS" height="391px" preserveAspectRatio="none" style="width:698px;height:391px;background:#FFFFFF;" version="1.1" viewBox="0 0 698 391" width="698px" zoomAndPan="magnify"><defs/><g><!--cluster Application--><g class="cluster" data-qualified-name="Application" data-source-line="14" id="ent0002"><path d="M8.5,6 L98.7979,6 A3.75,3.75 0 0 1 101.2979,8.5 L108.2979,28.2969 L688.5,28.2969 A2.5,2.5 0 0 1 691,30.7969 L691,382.28 A2.5,2.5 0 0 1 688.5,384.78 L8.5,384.78 A2.5,2.5 0 0 1 6,382.28 L6,8.5 A2.5,2.5 0 0 1 8.5,6" fill="none" style="stroke:#000000;stroke-width:1.5;"/><line style="stroke:#000000;stroke-width:1.5;" x1="6" x2="108.2979" y1="28.2969" y2="28.2969"/><text fill="#000000" font-family="sans-serif" font-size="14" font-weight="bold" lengthAdjust="spacing" textLength="89.2979" x="10" y="20.9951">Application</text><text fill="#000000" font-family="sans-serif" font-size="14" font-style="italic" lengthAdjust="spacing" textLength="85.5449" x="309.7275" y="43.292">&#171;Container&#187;</text></g><!--entity 4--><g class="entity" data-qualified-name="Application.4" data-source-line="15" id="ent0003"><rect fill="#DDDDDD" height="52.5938" rx="2.5" ry="2.5" style="stroke:#707070;stroke-width:0.5;" width="227.6826" x="22.16" y="186.59"/><rect fill="#DDDDDD" height="5" style="stroke:#707070;stroke-width:0.5;" width="10" x="17.16" y="191.59"/><rect fill="#DDDDDD" height="5" style="stroke:#707070;stroke-width:0.5;" width="10" x="17.16" y="229.1837"/><text fill="#000000" font-family="sans-serif" font-size="14" font-style="italic" lengthAdjust="spacing" textLength="158.4844" x="56.7591" y="209.5851">&#171;Component: Module&#187;</text><text fill="#000000" font-family="sans-serif" font-size="14" lengthAdjust="spacing" textLength="207.6826" x="32.16" y="225.882">com.acme.commerce.catalog</text></g><!--entity 3--><g class="entity" data-qualified-name="Application.3" data-source-line="18" id="ent0004"><rect fill="#DDDDDD" height="52.5938" rx="2.5" ry="2.5" style="stroke:#707070;stroke-width:0.5;" width="206.6279" x="170.69" y="316.19"/><rect fill="#DDDDDD" height="5" style="stroke:#707070;stroke-width:0.5;" width="10" x="165.69" y="321.19"/><rect fill="#DDDDDD" height="5" style="stroke:#707070;stroke-width:0.5;" width="10" x="165.69" y="358.7837"/><text fill="#000000" font-family="sans-serif" font-size="14" font-style="italic" lengthAdjust="spacing" textLength="158.4844" x="194.7618" y="339.1851">&#171;Component: Module&#187;</text><text fill="#000000" font-family="sans-serif" font-size="14" lengthAdjust="spacing" textLength="186.6279" x="180.69" y="355.482">com.acme.commerce.core</text></g><!--entity 7--><g class="entity" data-qualified-name="Application.7" data-source-line="21" id="ent0005"><rect fill="#DDDDDD" height="52.5938" rx="2.5" ry="2.5" style="stroke:#707070;stroke-width:0.5;" width="241.9219" x="433.04" y="186.59"/><rect fill="#DDDDDD" height="5" style="stroke:#707070;stroke-width:0.5;" width="10" x="428.04" y="191.59"/><rect fill="#DDDDDD" height="5" style="stroke:#707070;stroke-width:0.5;" width="10" x="428.04" y="229.1837"/><text fill="#000000" font-family="sans-serif" font-size="14" font-style="italic" lengthAdjust="spacing" textLength="158.4844" x="474.7588" y="209.5851">&#171;Component: Module&#187;</text><text fill="#000000" font-family="sans-serif" font-size="14" lengthAdjust="spacing" textLength="221.9219" x="443.04" y="225.882">com.acme.commerce.customer</text></g><!--entity 6--><g class="entity" data-qualified-name="Application.6" data-source-line="24" id="ent0006"><rect fill="#DDDDDD" height="52.5938" rx="2.5" ry="2.5" style="stroke:#707070;stroke-width:0.5;" width="213.5732" x="213.21" y="57"/><rect fill="#DDDDDD" height="5" style="stroke:#707070;stroke-width:0.5;" width="10" x="208.21" y="62"/><rect fill="#DDDDDD" height="5" style="stroke:#707070;stroke-width:0.5;" width="10" x="208.21" y="99.5938"/><text fill="#000000" font-family="sans-serif" font-size="14" font-style="italic" lengthAdjust="spacing" textLength="158.4844" x="240.7544" y="79.9951">&#171;Component: Module&#187;</text><text fill="#000000" font-family="sans-serif" font-size="14" lengthAdjust="spacing" textLength="193.5732" x="223.21" y="96.292">com.acme.commerce.order</text></g><!--link 4 to 3--><g class="link" data-entity-1="ent0003" data-entity-2="ent0004" data-link-type="dependency" data-source-line="28" id="lnk7"><path codeLine="28" d="M163.59,239.4 C187.66,261.66 217.9948,289.6964 242.0448,311.9364" fill="none" id="4-to-3" style="stroke:#707070;stroke-width:1;stroke-dasharray:7,7;"/><polygon fill="#707070" points="246.45,316.01,242.558,306.9628,242.779,312.6153,237.1265,312.8363,246.45,316.01" style="stroke:#707070;stroke-width:1;"/><text fill="#000000" font-family="sans-serif" font-size="13" lengthAdjust="spacing" textLength="55.7642" x="214" y="282.2569">depends</text><text fill="#000000" font-family="sans-serif" font-size="13" lengthAdjust="spacing" textLength="4.1323" x="269.7642" y="282.2569">&#160;</text><text fill="#000000" font-family="sans-serif" font-size="13" lengthAdjust="spacing" textLength="16.1929" x="273.8965" y="282.2569">on</text></g><!--link 6 to 4--><g class="link" data-entity-1="ent0006" data-entity-2="ent0003" data-link-type="dependency" data-source-line="29" id="lnk8"><path codeLine="29" d="M278.43,109.84 C263.91,118.99 247.59,129.54 233,139.59 C211.38,154.49 192.5261,168.4483 173.9961,182.5383" fill="none" id="6-to-4" style="stroke:#707070;stroke-width:1;stroke-dasharray:7,7;"/><polygon fill="#707070" points="169.22,186.17,178.8052,183.9065,173.2001,183.1436,173.963,177.5384,169.22,186.17" style="stroke:#707070;stroke-width:1;"/><text fill="#000000" font-family="sans-serif" font-size="13" lengthAdjust="spacing" textLength="55.7642" x="234" y="152.6569">depends</text><text fill="#000000" font-family="sans-serif" font-size="13" lengthAdjust="spacing" textLength="4.1323" x="289.7642" y="152.6569">&#160;</text><text fill="#000000" font-family="sans-serif" font-size="13" lengthAdjust="spacing" textLength="16.1929" x="293.8965" y="152.6569">on</text></g><!--link 6 to 3--><g class="link" data-entity-1="ent0006" data-entity-2="ent0004" data-link-type="dependency" data-source-line="30" id="lnk9"><path codeLine="30" d="M320.09,109.99 C319.62,148.86 316.29,224.61 299,286.19 C296.18,296.23 294.3545,301.341 290.0445,310.501" fill="none" id="6-to-3" style="stroke:#707070;stroke-width:1;stroke-dasharray:7,7;"/><polygon fill="#707070" points="287.49,315.93,294.9411,309.4894,289.6187,311.4058,287.7024,306.0834,287.49,315.93" style="stroke:#707070;stroke-width:1;"/><text fill="#000000" font-family="sans-serif" font-size="13" lengthAdjust="spacing" textLength="55.7642" x="316" y="217.4569">depends</text><text fill="#000000" font-family="sans-serif" font-size="13" lengthAdjust="spacing" textLength="4.1323" x="371.7642" y="217.4569">&#160;</text><text fill="#000000" font-family="sans-serif" font-size="13" lengthAdjust="spacing" textLength="16.1929" x="375.8965" y="217.4569">on</text></g><!--link 6 to 7--><g class="link" data-entity-1="ent0006" data-entity-2="ent0005" data-link-type="dependency" data-source-line="31" id="lnk10"><path codeLine="31" d="M367.07,109.96 C407.78,132.16 461.0521,161.2078 501.7321,183.3878" fill="none" id="6-to-7" style="stroke:#707070;stroke-width:1;stroke-dasharray:7,7;"/><polygon fill="#707070" points="507,186.26,501.013,178.4398,502.6101,183.8665,497.1834,185.4636,507,186.26" style="stroke:#707070;stroke-width:1;"/><text fill="#000000" font-family="sans-serif" font-size="13" lengthAdjust="spacing" textLength="29.7832" x="452" y="152.6569">uses</text></g><?plantuml-src dP71QW8n48Rl-nI3tXTjHK54KC-UBFGW7ePaN8D99aooQ5jyzyPW2zkA1oSGadp__4ncuj7uW88ElYg0U43D9-CRsAEDb5zGX4yhjYpGdmokw_ge4ikIHPFyHOfTO4y-tST2Ag5lBDt7dXCjKHqRuTRh6zsN-A5typJjiRNfZSvfOKtZNIu0LDv8CZq9XdUZqm5U1bUrm_EQOiI6DkQJO3Ze5Bv97vQWTNPONQgGYyaww2r2i4PXCknxC9kjs2SqdcG-ButxpOPHeRVR5DQiMqjPrTSbO9lLHL-ZSbJdWoDH-O09BJUPxZf-hy_wiT0_iycpPcrCx4epkuRZ9mtB58lRfHf1lRsDSbVFyuUdUPw1l8x0lXftwUWXVPmxoRID5By1?></g></svg>